<svg xmlns="http://www.w3.org/2000/svg" viewBox="0 0 486.18 166.71"><defs><style>.cls-1{fill:red;}.cls-2{fill:#ffe000;}</style></defs><title>logo</title><g id="Layer_2" data-name="Layer 2"><g id="Layer_1-2" data-name="Layer 1"><path class="cls-1" d="M69.27,30.06,66.06,41.41H49.43v16L46.22,68.79H37V92.18l-3.21,11.35H0V11.35L3.21,0H69.27Zm-5.11-5V5H8.44V87.15h23.4V52.41H44.32V38.14H31.84V25Z"/><path class="cls-1" d="M133.43,92.18l-3.21,11.35H64.16V11.35L67.37,0h66.06V30.06l-3.21,11.35H113.58v16l-3.2,4.68h23.05Zm-5.11-5v-20H96V52.41h12.48V38.14H96V25h32.32V5H72.59V87.15Z"/><path class="cls-1" d="M197.7,72l-3.2,11.34-20.8,20.24H128.32V11.35L131.52,0h46.1L197.7,30.53Zm-5.11-2.1V32L174.84,5H136.75V87.15h38.06Zm-23.52-2.7h-8.79V25h8.79Z"/><path class="cls-1" d="M261.74,92.18l-3.2,11.35H192.48V11.35L195.68,0h66.06V30.06l-3.2,11.35H241.9v16l-3.21,4.68h23.05Zm-5.11-5v-20H224.32V52.41h12.47V38.14H224.32V25h32.31V5H200.91V87.15Z"/><path class="cls-1" d="M325.9,16.73V51.59L324,55.45l1.9,1.87v45.51l-3.21,11.35H289V103.53H256.63V11.35L259.84,0h45Zm-5.11,2.4L303.07,5h-38V87.15h23.41V53.58l8.79,8.77V97.8h23.52V59.4L307.87,46.68l12.92-.12Zm-23.52,19h-8.79V25h8.79Z"/><path class="cls-1" d="M357.74,92.18l-3.21,11.35H320.79V11.35L324,0h33.74Zm-5.11-5V5h-23.4V87.15Z"/><path class="cls-1" d="M422,72l-3.21,11.34L398,103.53H352.63V35.21L376,0h46ZM416.91,5H378.8L361.07,31.71V87.15h38.06l17.78-17.3V55.69H393.27V69.37h-8.8V25h8.8v25h23.64Z"/><path class="cls-1" d="M486.18,72,483,83.29l-20.79,20.24H416.79V23.75L440.79,0h45.39Zm-5.11-2.1V5h-38l-17.85,17.5V87.15h38.06Zm-23.53-2.7h-8.79V25h8.79Z"/><path class="cls-2" d="M431.76,149.24l-2,7.15-9.36,10.32H388.12v-18l2-7.15h10.93V129.49l1.95-1.92h-14.9V108.63l2-7.15h29l12.65,19.24Zm-3.22-1.16V121.66l-11.18-17H393.43v12.6h21v8.26h-8.09v8.91h8.09v10.32h-21v11.65H421Z"/><path class="cls-2" d="M472.18,146.81l-2,7.15-13.1,12.75h-28.6V108.63l2-7.15h29l12.65,19.24ZM469,145.48V121.66l-11.18-17h-24v51.74h24Zm-14.82-1.69H448.6V117.25h5.54Z"/></g></g></svg>