<svg xmlns="http://www.w3.org/2000/svg" xmlns:xlink="http://www.w3.org/1999/xlink" viewBox="0 0 74.32 28.97"><defs><style>.cls-1{stroke:#6d6e70;fill:url(#linear-gradient);}.cls-1,.cls-2{stroke-linejoin:round;stroke-width:0.25px;}.cls-2{stroke:#f1f1f2;fill:url(#linear-gradient-2);}.cls-3{fill:#262424;}</style><linearGradient id="linear-gradient" x1="30.23" y1="-8.17" x2="44.08" y2="37.14" gradientUnits="userSpaceOnUse"><stop offset="0" stop-color="#fff"/><stop offset="1" stop-color="#bbbcbe"/></linearGradient><linearGradient id="linear-gradient-2" x1="37.16" y1="1.13" x2="37.16" y2="27.83" gradientUnits="userSpaceOnUse"><stop offset="0" stop-color="#fff"/><stop offset="1" stop-color="#e6e6e7"/></linearGradient></defs><title>shift</title><g id="Layer_2" data-name="Layer 2"><g id="Graphics"><rect class="cls-1" x="0.13" y="0.13" width="74.07" height="28.72" rx="3.51" ry="3.51"/><path class="cls-2" d="M73.22,25.21a2.63,2.63,0,0,1-2.63,2.62H3.73A2.63,2.63,0,0,1,1.1,25.21V3.76A2.63,2.63,0,0,1,3.73,1.13H70.59a2.63,2.63,0,0,1,2.63,2.63Z"/><path class="cls-3" d="M19.47,13.78H17V11.33h2.45v2.45Zm2.45,7.34H17V18.67h6.12v2.45Zm2.44-9.79H19.47V8.88h6.12v2.45Zm-1.22,4.89H19.47V13.78h3.67v2.44Zm0,2.45V16.22h2.45v2.45H23.14Z"/><path class="cls-3" d="M28,21.12H26.81V6.44h2.45v7.34H31.7v2.44H29.26v4.9Zm6.12-7.34H31.7V11.33h2.45v2.45Zm1.22,7.34H34.15V13.78H36.6v7.34Z"/><path class="cls-3" d="M39,8.88H37.82V6.44h2.45V8.88Zm0,12.24H37.82v-11h2.45v11Z"/><path class="cls-3" d="M45.16,21.12H43.94V12.55H41.49V10.11h2.45V6.44h6.11V8.88H46.38v1.23h4.9v2.44h-4.9v8.57Z"/><path class="cls-3" d="M56.17,18.67H53.72V12.55H52.5V10.11h1.22V7.66h2.45v2.45h1.22v2.44H56.17v6.12Zm1.22,2.45H56.17V18.67h2.45v2.45Z"/></g></g></svg>