<svg xmlns="http://www.w3.org/2000/svg" xmlns:xlink="http://www.w3.org/1999/xlink" viewBox="0 0 181.23 30.74"><defs><style>.cls-1{stroke:#6d6e70;fill:url(#linear-gradient);}.cls-1,.cls-2{stroke-linejoin:round;stroke-width:0.25px;}.cls-2{stroke:#f1f1f2;fill:url(#linear-gradient-2);}.cls-3{fill:#262424;}</style><linearGradient id="linear-gradient" x1="90.62" y1="0.13" x2="90.62" y2="30.62" gradientUnits="userSpaceOnUse"><stop offset="0" stop-color="#fff"/><stop offset="1" stop-color="#bbbcbe"/></linearGradient><linearGradient id="linear-gradient-2" x1="90.62" y1="1.01" x2="90.62" y2="29.73" gradientUnits="userSpaceOnUse"><stop offset="0" stop-color="#fff"/><stop offset="1" stop-color="#e6e6e7"/></linearGradient></defs><title>spacebar</title><g id="Layer_2" data-name="Layer 2"><g id="Graphics"><rect class="cls-1" x="0.13" y="0.13" width="180.98" height="30.49" rx="3.1" ry="3.1"/><path class="cls-2" d="M180.25,27.41a2.33,2.33,0,0,1-2.33,2.32H3.31A2.32,2.32,0,0,1,1,27.41V3.34A2.33,2.33,0,0,1,3.31,1H177.92a2.34,2.34,0,0,1,2.33,2.33Z"/><path class="cls-3" d="M63.38,14.67H60.93V12.22h2.45v2.45ZM65.83,22h-4.9V19.56h6.12V22Zm2.44-9.79H63.38V9.77H69.5v2.45Zm-1.22,4.89H63.38V14.67h3.67v2.44Zm0,2.45V17.11H69.5v2.45H67.05Z"/><path class="cls-3" d="M71.94,25.68H70.72V11h2.45v2.44h2.44v2.45H73.17v2.45h6.11v2.44H73.17v4.9Zm7.34-12.24H75.61V11h3.67v2.44Zm0,4.9v-4.9h2.45v4.9H79.28Z"/><path class="cls-3" d="M91.52,13.44H83V11h8.57v2.44ZM92.74,22H85.4V19.56H83V17.11H85.4V14.67h6.12V13.44H94V22Zm-2.45-2.45h1.23V17.11H85.4v2.45h4.89Z"/><path class="cls-3" d="M97.64,19.56H95.19V13.44h2.45v6.12Zm6.11-6.12H97.64V11h6.11v2.44ZM102.53,22H97.64V19.56h6.11V22ZM105,15.89h-1.23V13.44h2.45v2.45Zm-1.23,3.67V17.11h2.45v2.45h-2.45Z"/><path class="cls-3" d="M109.87,19.56h-2.45V13.44h2.45V11h7.34v4.89h-2.45v1.22h-4.89v2.45Zm3.67-4.89h1.22V13.44h-4.89v1.23h3.67ZM116,22h-6.12V19.56h4.89V18.34h2.45V22Z"/></g></g></svg>